<svg width="20" height="20" viewBox="0 0 20 20" fill="none" xmlns="http://www.w3.org/2000/svg">
<path fill-rule="evenodd" clip-rule="evenodd" d="M5.34666 3.9725C4.76097 3.9725 4.19927 4.20516 3.78513 4.61931C3.37099 5.03345 3.13832 5.59515 3.13832 6.18083V13.5408C3.13832 14.1265 3.37099 14.6882 3.78513 15.1024C4.19927 15.5165 4.76097 15.7492 5.34666 15.7492H6.56416V3.9725H5.34666ZM5.34666 2.5C4.37066 2.5 3.43464 2.88771 2.7445 3.57785C2.05437 4.26798 1.66666 5.204 1.66666 6.18V13.5408C1.66655 14.0242 1.76165 14.5028 1.94654 14.9494C2.13143 15.3959 2.40248 15.8017 2.74421 16.1435C3.08594 16.4853 3.49166 16.7565 3.93819 16.9415C4.38472 17.1265 4.86332 17.2217 5.34666 17.2217H14.6533C15.1367 17.2217 15.6154 17.1264 16.062 16.9414C16.5086 16.7563 16.9143 16.4851 17.2561 16.1432C17.5978 15.8013 17.8688 15.3955 18.0537 14.9488C18.2385 14.5021 18.3335 14.0234 18.3333 13.54V6.18C18.3333 5.204 17.9456 4.26798 17.2555 3.57785C16.5653 2.88771 15.6293 2.5 14.6533 2.5H5.34666ZM8.03666 3.9725V15.7492H14.6533C15.239 15.7492 15.8007 15.5165 16.2148 15.1024C16.629 14.6882 16.8617 14.1265 16.8617 13.5408V6.18C16.8617 5.59431 16.629 5.03262 16.2148 4.61847C15.8007 4.20433 15.239 3.97167 14.6533 3.97167H8.03666V3.9725Z" fill="black"/>
</svg>
